# xmcd CD database file
#
# Track frame offsets:
#	150
#	13258
#	20720
#	39448
#	65483
#	87920
#	112488
#	126830
#	137713
#	150638
#	167903
#	179990
#	191113
#	203775
#	214808
#	225755
#	238995
#	253688
#	268300
#
# Disc length: 3761 seconds
#
# Revision: 0
# Processed by: cddbd v1.5PL3 Copyright (c) Steve Scherf et al.
# Submitted via: CDex 1.51
#
DISCID=270eaf13
DTITLE=渡辺宙明 - マジンガーＺ　DISC2
DYEAR=1900
DGENRE=Anime
TTITLE0=２人になれば
TTITLE1=マジンガーＺ対暗黒大将軍
TTITLE2=預言者〜ミケーネの影
TTITLE3=決戦！戦闘獣軍団
TTITLE4=明日なき死闘の始まり
TTITLE5=蘇れ！マジンガーＺ
TTITLE6=グレートマジンガー出撃
TTITLE7=オレはグレートマジンガー
TTITLE8=僕らの星剣鉄也
TTITLE9=ビューナスＡの歌
TTITLE10=勝てグレートマジンガー
TTITLE11=鉄也のテーマ
TTITLE12=悪の勇者たち
TTITLE13=勇者はマジンガー
TTITLE14=シローの日曜日
TTITLE15=ジュンの歌
TTITLE16=グレートマジンガー賛歌
TTITLE17=グレートマジンガーのバラード
TTITLE18=ボロット音頭
EXTD=
EXTT0=
EXTT1=
EXTT2=
EXTT3=
EXTT4=
EXTT5=
EXTT6=
EXTT7=
EXTT8=
EXTT9=
EXTT10=
EXTT11=
EXTT12=
EXTT13=
EXTT14=
EXTT15=
EXTT16=
EXTT17=
EXTT18=
PLAYORDER=
